<svg  fill="white" xmlns="http://www.w3.org/2000/svg" width="24" height="24" id="dots"><path d="M19.7.5H4.3C2.2.5.5 2.2.5 4.3v15.4c0 2.1 1.7 3.8 3.8 3.8h15.4c2.1 0 3.8-1.7 3.8-3.8V4.3c0-2.1-1.7-3.8-3.8-3.8zM6.9 14.1c-1.2 0-2.1-.9-2.1-2.1 0-1.2.9-2.1 2.1-2.1 1.2 0 2.1.9 2.1 2.1 0 1.2-.9 2.1-2.1 2.1zm5.1 4.8c-1.2 0-2.1-.9-2.1-2.1 0-1.2.9-2.1 2.1-2.1s2.1.9 2.1 2.1c0 1.2-.9 2.1-2.1 2.1zm0-4.8c-1.2 0-2.1-.9-2.1-2.1 0-1.2.9-2.1 2.1-2.1s2.1.9 2.1 2.1c0 1.2-.9 2.1-2.1 2.1zm0-4.9c-1.2 0-2.1-.9-2.1-2.1 0-1.2.9-2.1 2.1-2.1s2.1.9 2.1 2.1c0 1.2-.9 2.1-2.1 2.1zm5.1 9.7c-1.2 0-2.1-.9-2.1-2.1 0-1.2.9-2.1 2.1-2.1s2.1.9 2.1 2.1c0 1.2-1 2.1-2.1 2.1zm0-4.8c-1.2 0-2.1-.9-2.1-2.1 0-1.2.9-2.1 2.1-2.1s2.1.9 2.1 2.1c0 1.2-1 2.1-2.1 2.1zm0-4.9c-1.2 0-2.1-.9-2.1-2.1 0-1.2.9-2.1 2.1-2.1s2.1.9 2.1 2.1c0 1.2-1 2.1-2.1 2.1z"></path></svg>